<svg xmlns="http://www.w3.org/2000/svg" xmlns:xlink="http://www.w3.org/1999/xlink" width="1920" height="1080" viewBox="0 0 1920 1080">
  <defs>
    <linearGradient id="linear-gradient" x1="0.5" x2="0.5" y2="1" gradientUnits="objectBoundingBox">
      <stop offset="0" stop-color="#2b2b2b"/>
      <stop offset="1"/>
      <stop offset="1" stop-color="#777272"/>
    </linearGradient>
    <clipPath id="clip-bg">
      <rect width="1920" height="1080"/>
    </clipPath>
  </defs>
  <g id="bg" clip-path="url(#clip-bg)">
    <rect width="1920" height="1080" fill="url(#linear-gradient)"/>
    <path id="Path_1" data-name="Path 1" d="M926,0" fill="none" stroke="#707070" stroke-width="1"/>
    <g id="Path_2" data-name="Path 2" transform="translate(1615 658)" fill="#fff">
      <path d="M128,116h0Z" stroke="none"/>
      <path d="M 0 116.0000076293945 L 128 116.0000076293945 L 0 116.0000076293945 Z" stroke="none" fill="#707070"/>
    </g>
    <path id="Path_3" data-name="Path 3" d="M232,1528h0" transform="translate(0 -1248)" fill="none" stroke="#707070" stroke-width="1"/>
    <g id="Group_2" data-name="Group 2" transform="matrix(0.978, 0.208, -0.208, 0.978, 916.064, 140.831)" opacity="0.34">
      <circle id="Ellipse_13" data-name="Ellipse 13" cx="2.2" cy="2.2" r="2.2" transform="translate(649 179)" fill="#ffd845"/>
      <circle id="Ellipse_14" data-name="Ellipse 14" cx="2.2" cy="2.2" r="2.2" transform="translate(673.948 179)" fill="#ffd845"/>
      <circle id="Ellipse_15" data-name="Ellipse 15" cx="2.2" cy="2.2" r="2.2" transform="translate(698.896 179)" fill="#ffd845"/>
      <circle id="Ellipse_16" data-name="Ellipse 16" cx="2.2" cy="2.2" r="2.2" transform="translate(723.844 179)" fill="#ffd845"/>
      <circle id="Ellipse_17" data-name="Ellipse 17" cx="2.2" cy="2.2" r="2.2" transform="translate(649 221.689)" fill="#ffd845"/>
      <circle id="Ellipse_18" data-name="Ellipse 18" cx="2.2" cy="2.2" r="2.2" transform="translate(673.948 221.689)" fill="#ffd845"/>
      <circle id="Ellipse_19" data-name="Ellipse 19" cx="2.2" cy="2.2" r="2.2" transform="translate(698.896 221.689)" fill="#ffd845"/>
      <circle id="Ellipse_20" data-name="Ellipse 20" cx="2.2" cy="2.2" r="2.2" transform="translate(723.844 221.689)" fill="#ffd845"/>
      <circle id="Ellipse_21" data-name="Ellipse 21" cx="2.2" cy="2.2" r="2.2" transform="translate(649 264.378)" fill="#ffd845"/>
      <circle id="Ellipse_22" data-name="Ellipse 22" cx="2.2" cy="2.2" r="2.2" transform="translate(673.948 264.378)" fill="#ffd845"/>
      <circle id="Ellipse_23" data-name="Ellipse 23" cx="2.2" cy="2.2" r="2.2" transform="translate(698.896 264.378)" fill="#ffd845"/>
      <circle id="Ellipse_24" data-name="Ellipse 24" cx="2.2" cy="2.2" r="2.2" transform="translate(723.844 264.378)" fill="#ffd845"/>
    </g>
    <text id="_" data-name="{ }" transform="translate(1804 263)" fill="#ffd845" font-size="46" font-family="CinzelDecorative-Regular, Cinzel Decorative" opacity="0.44"><tspan x="0" y="0">{ }</tspan></text>
    <g id="Group_3" data-name="Group 3" transform="matrix(0.719, 0.695, -0.695, 0.719, -195.574, 550.443)" opacity="0.17">
      <circle id="Ellipse_1" data-name="Ellipse 1" cx="3" cy="3" r="3" transform="translate(438 132)" fill="#ccf381"/>
      <circle id="Ellipse_2" data-name="Ellipse 2" cx="3" cy="3" r="3" transform="translate(480.222 132)" fill="#ccf381"/>
      <ellipse id="Ellipse_3" data-name="Ellipse 3" cx="2.5" cy="3" rx="2.5" ry="3" transform="translate(519.242 132)" fill="#ccf381"/>
      <circle id="Ellipse_4" data-name="Ellipse 4" cx="3" cy="3" r="3" transform="translate(564.666 132)" fill="#ccf381"/>
      <circle id="Ellipse_5" data-name="Ellipse 5" cx="3" cy="3" r="3" transform="translate(438 180.123)" fill="#ccf381"/>
      <circle id="Ellipse_6" data-name="Ellipse 6" cx="3" cy="3" r="3" transform="translate(480.222 180.123)" fill="#ccf381"/>
      <ellipse id="Ellipse_7" data-name="Ellipse 7" cx="2.5" cy="3" rx="2.5" ry="3" transform="translate(519.242 180.123)" fill="#ccf381"/>
      <circle id="Ellipse_8" data-name="Ellipse 8" cx="3" cy="3" r="3" transform="translate(564.666 180.123)" fill="#ccf381"/>
      <ellipse id="Ellipse_9" data-name="Ellipse 9" cx="3" cy="3.5" rx="3" ry="3.5" transform="translate(438 234.121)" fill="#ccf381"/>
      <ellipse id="Ellipse_10" data-name="Ellipse 10" cx="3" cy="3.5" rx="3" ry="3.5" transform="translate(480.222 234.121)" fill="#ccf381"/>
      <ellipse id="Ellipse_11" data-name="Ellipse 11" cx="2.5" cy="3.5" rx="2.5" ry="3.5" transform="translate(519.242 234.121)" fill="#ccf381"/>
      <ellipse id="Ellipse_12" data-name="Ellipse 12" cx="3" cy="3.5" rx="3" ry="3.5" transform="translate(564.666 234.121)" fill="#ccf381"/>
    </g>
    <g id="Group_4" data-name="Group 4" transform="translate(927.01 -111.877) rotate(-8)" opacity="0.34">
      <circle id="Ellipse_13-2" data-name="Ellipse 13" cx="1.972" cy="1.972" r="1.972" transform="translate(649 179)" fill="#ffd845"/>
      <circle id="Ellipse_14-2" data-name="Ellipse 14" cx="1.972" cy="1.972" r="1.972" transform="translate(671.365 179)" fill="#ffd845"/>
      <circle id="Ellipse_15-2" data-name="Ellipse 15" cx="1.972" cy="1.972" r="1.972" transform="translate(693.73 179)" fill="#ffd845"/>
      <circle id="Ellipse_16-2" data-name="Ellipse 16" cx="1.972" cy="1.972" r="1.972" transform="translate(716.095 179)" fill="#ffd845"/>
      <circle id="Ellipse_17-2" data-name="Ellipse 17" cx="1.972" cy="1.972" r="1.972" transform="translate(649 227.491)" fill="#ffd845"/>
      <circle id="Ellipse_18-2" data-name="Ellipse 18" cx="1.972" cy="1.972" r="1.972" transform="translate(671.365 227.491)" fill="#ffd845"/>
      <circle id="Ellipse_19-2" data-name="Ellipse 19" cx="1.972" cy="1.972" r="1.972" transform="translate(693.73 227.491)" fill="#ffd845"/>
      <circle id="Ellipse_20-2" data-name="Ellipse 20" cx="1.972" cy="1.972" r="1.972" transform="translate(716.095 227.491)" fill="#ffd845"/>
      <circle id="Ellipse_21-2" data-name="Ellipse 21" cx="1.972" cy="1.972" r="1.972" transform="translate(649 275.981)" fill="#ffd845"/>
      <circle id="Ellipse_22-2" data-name="Ellipse 22" cx="1.972" cy="1.972" r="1.972" transform="translate(671.365 275.981)" fill="#ffd845"/>
      <circle id="Ellipse_23-2" data-name="Ellipse 23" cx="1.972" cy="1.972" r="1.972" transform="translate(693.73 275.981)" fill="#ffd845"/>
      <circle id="Ellipse_24-2" data-name="Ellipse 24" cx="1.972" cy="1.972" r="1.972" transform="translate(716.095 275.981)" fill="#ffd845"/>
    </g>
    <text id="_2" data-name="{ }" transform="translate(627.416 130.874) rotate(-30)" fill="#ffd845" font-size="46" font-family="CinzelDecorative-Regular, Cinzel Decorative" opacity="0.44"><tspan x="0" y="0">{ }</tspan></text>
    <text id="_3" data-name="{   }" transform="translate(395.604 311.82) rotate(45)" fill="#6f77f4" font-size="46" font-family="CinzelDecorative-Regular, Cinzel Decorative" opacity="0.2"><tspan x="0" y="0" xml:space="preserve">{   }</tspan></text>
    <g id="Group_5" data-name="Group 5" transform="translate(1143.869 583.953) rotate(-8)" opacity="0.21">
      <circle id="Ellipse_13-3" data-name="Ellipse 13" cx="2.034" cy="2.034" r="2.034" transform="translate(649 179)" fill="#ffd845"/>
      <circle id="Ellipse_14-3" data-name="Ellipse 14" cx="2.034" cy="2.034" r="2.034" transform="translate(672.074 179)" fill="#ffd845"/>
      <circle id="Ellipse_15-3" data-name="Ellipse 15" cx="2.034" cy="2.034" r="2.034" transform="translate(695.149 179)" fill="#ffd845"/>
      <circle id="Ellipse_16-3" data-name="Ellipse 16" cx="2.034" cy="2.034" r="2.034" transform="translate(718.223 179)" fill="#ffd845"/>
      <circle id="Ellipse_17-3" data-name="Ellipse 17" cx="2.034" cy="2.034" r="2.034" transform="translate(649 229.028)" fill="#ffd845"/>
      <circle id="Ellipse_18-3" data-name="Ellipse 18" cx="2.034" cy="2.034" r="2.034" transform="translate(672.074 229.028)" fill="#ffd845"/>
      <circle id="Ellipse_19-3" data-name="Ellipse 19" cx="2.034" cy="2.034" r="2.034" transform="translate(695.149 229.028)" fill="#ffd845"/>
      <circle id="Ellipse_20-3" data-name="Ellipse 20" cx="2.034" cy="2.034" r="2.034" transform="translate(718.223 229.028)" fill="#ffd845"/>
      <circle id="Ellipse_21-3" data-name="Ellipse 21" cx="2.034" cy="2.034" r="2.034" transform="translate(649 279.057)" fill="#ffd845"/>
      <circle id="Ellipse_22-3" data-name="Ellipse 22" cx="2.034" cy="2.034" r="2.034" transform="translate(672.074 279.057)" fill="#ffd845"/>
      <circle id="Ellipse_23-3" data-name="Ellipse 23" cx="2.034" cy="2.034" r="2.034" transform="translate(695.149 279.057)" fill="#ffd845"/>
      <circle id="Ellipse_24-3" data-name="Ellipse 24" cx="2.034" cy="2.034" r="2.034" transform="translate(718.223 279.057)" fill="#ffd845"/>
    </g>
    <text id="_4" data-name="&lt;/&gt;" transform="translate(1712 950)" fill="#6f77f4" font-size="46" font-family="CinzelDecorative-Regular, Cinzel Decorative" opacity="0.39"><tspan x="0" y="0">&lt;/&gt;</tspan></text>
    <text id="_5" data-name="&lt;/&gt;" transform="translate(1236 1035)" fill="#db3157" font-size="46" font-family="CinzelDecorative-Regular, Cinzel Decorative" opacity="0.39"><tspan x="0" y="0">&lt;/&gt;</tspan></text>
    <g id="Group_8" data-name="Group 8" transform="translate(-1269 -394)" opacity="0.08">
      <g id="Group_7" data-name="Group 7" transform="translate(1320 426)">
        <path id="Polygon_1" data-name="Polygon 1" d="M5,0l5,9H0Z" transform="translate(38)" fill="#db3157"/>
        <path id="Polygon_2" data-name="Polygon 2" d="M4.5,0,9,9H0Z" transform="translate(26)" fill="#db3157"/>
        <path id="Polygon_3" data-name="Polygon 3" d="M4.5,0,9,9H0Z" transform="translate(13)" fill="#db3157"/>
        <path id="Polygon_4" data-name="Polygon 4" d="M5,0l5,9H0Z" transform="translate(38)" fill="#db3157"/>
        <path id="Polygon_5" data-name="Polygon 5" d="M4.5,0,9,9H0Z" transform="translate(26)" fill="#db3157"/>
        <path id="Polygon_6" data-name="Polygon 6" d="M4.5,0,9,9H0Z" transform="translate(13)" fill="#db3157"/>
        <path id="Polygon_7" data-name="Polygon 7" d="M5,0l5,9H0Z" transform="translate(38)" fill="#db3157"/>
        <path id="Polygon_8" data-name="Polygon 8" d="M4.5,0,9,9H0Z" transform="translate(26)" fill="#db3157"/>
        <path id="Polygon_9" data-name="Polygon 9" d="M4.5,0,9,9H0Z" transform="translate(13)" fill="#db3157"/>
        <path id="Polygon_10" data-name="Polygon 10" d="M5,0l5,9H0Z" transform="translate(38)" fill="#db3157"/>
        <path id="Polygon_11" data-name="Polygon 11" d="M4.5,0,9,9H0Z" transform="translate(26)" fill="#db3157"/>
        <path id="Polygon_12" data-name="Polygon 12" d="M4.5,0,9,9H0Z" transform="translate(13)" fill="#db3157"/>
        <path id="Polygon_13" data-name="Polygon 13" d="M5,0l5,7H0Z" transform="translate(38 12)" fill="#db3157"/>
        <path id="Polygon_14" data-name="Polygon 14" d="M4.5,0,9,7H0Z" transform="translate(26 12)" fill="#db3157"/>
        <path id="Polygon_15" data-name="Polygon 15" d="M4.5,0,9,7H0Z" transform="translate(13 12)" fill="#db3157"/>
        <path id="Polygon_16" data-name="Polygon 16" d="M5,0l5,7H0Z" transform="translate(38 12)" fill="#db3157"/>
        <path id="Polygon_17" data-name="Polygon 17" d="M4.5,0,9,7H0Z" transform="translate(26 12)" fill="#db3157"/>
        <path id="Polygon_18" data-name="Polygon 18" d="M4.5,0,9,7H0Z" transform="translate(13 12)" fill="#db3157"/>
        <path id="Polygon_19" data-name="Polygon 19" d="M5,0l5,7H0Z" transform="translate(38 12)" fill="#db3157"/>
        <path id="Polygon_20" data-name="Polygon 20" d="M4.5,0,9,7H0Z" transform="translate(26 12)" fill="#db3157"/>
        <path id="Polygon_21" data-name="Polygon 21" d="M4.5,0,9,7H0Z" transform="translate(13 12)" fill="#db3157"/>
        <path id="Polygon_22" data-name="Polygon 22" d="M5,0l5,7H0Z" transform="translate(38 12)" fill="#db3157"/>
        <path id="Polygon_23" data-name="Polygon 23" d="M4.5,0,9,7H0Z" transform="translate(26 12)" fill="#db3157"/>
        <path id="Polygon_24" data-name="Polygon 24" d="M4.5,0,9,7H0Z" transform="translate(13 12)" fill="#db3157"/>
        <path id="Polygon_25" data-name="Polygon 25" d="M5,0l5,8H0Z" transform="translate(38 23)" fill="#db3157"/>
        <path id="Polygon_26" data-name="Polygon 26" d="M4.5,0,9,8H0Z" transform="translate(26 23)" fill="#db3157"/>
        <path id="Polygon_27" data-name="Polygon 27" d="M4.5,0,9,8H0Z" transform="translate(13 23)" fill="#db3157"/>
        <path id="Polygon_28" data-name="Polygon 28" d="M5,0l5,8H0Z" transform="translate(38 23)" fill="#db3157"/>
        <path id="Polygon_29" data-name="Polygon 29" d="M4.5,0,9,8H0Z" transform="translate(26 23)" fill="#db3157"/>
        <path id="Polygon_30" data-name="Polygon 30" d="M4.5,0,9,8H0Z" transform="translate(13 23)" fill="#db3157"/>
        <path id="Polygon_31" data-name="Polygon 31" d="M5,0l5,8H0Z" transform="translate(38 23)" fill="#db3157"/>
        <path id="Polygon_32" data-name="Polygon 32" d="M4.5,0,9,8H0Z" transform="translate(26 23)" fill="#db3157"/>
        <path id="Polygon_33" data-name="Polygon 33" d="M4.5,0,9,8H0Z" transform="translate(13 23)" fill="#db3157"/>
        <path id="Polygon_34" data-name="Polygon 34" d="M5,0l5,8H0Z" transform="translate(38 23)" fill="#db3157"/>
        <path id="Polygon_35" data-name="Polygon 35" d="M4.5,0,9,8H0Z" transform="translate(26 23)" fill="#db3157"/>
        <path id="Polygon_36" data-name="Polygon 36" d="M4.5,0,9,8H0Z" transform="translate(13 23)" fill="#db3157"/>
        <path id="Polygon_37" data-name="Polygon 37" d="M5,0l5,9H0Z" transform="translate(38 34)" fill="#db3157"/>
        <path id="Polygon_38" data-name="Polygon 38" d="M4.5,0,9,9H0Z" transform="translate(26 34)" fill="#db3157"/>
        <path id="Polygon_39" data-name="Polygon 39" d="M4.5,0,9,9H0Z" transform="translate(13 34)" fill="#db3157"/>
        <path id="Polygon_40" data-name="Polygon 40" d="M5,0l5,9H0Z" transform="translate(38 34)" fill="#db3157"/>
        <path id="Polygon_41" data-name="Polygon 41" d="M4.5,0,9,9H0Z" transform="translate(26 34)" fill="#db3157"/>
        <path id="Polygon_42" data-name="Polygon 42" d="M4.5,0,9,9H0Z" transform="translate(13 34)" fill="#db3157"/>
        <path id="Polygon_43" data-name="Polygon 43" d="M5,0l5,9H0Z" transform="translate(38 34)" fill="#db3157"/>
        <path id="Polygon_44" data-name="Polygon 44" d="M4.5,0,9,9H0Z" transform="translate(26 34)" fill="#db3157"/>
        <path id="Polygon_45" data-name="Polygon 45" d="M4.5,0,9,9H0Z" transform="translate(13 34)" fill="#db3157"/>
        <path id="Polygon_46" data-name="Polygon 46" d="M5,0l5,9H0Z" transform="translate(38 34)" fill="#db3157"/>
        <path id="Polygon_47" data-name="Polygon 47" d="M4.5,0,9,9H0Z" transform="translate(26 34)" fill="#db3157"/>
        <path id="Polygon_48" data-name="Polygon 48" d="M4.5,0,9,9H0Z" transform="translate(13 34)" fill="#db3157"/>
        <path id="Polygon_49" data-name="Polygon 49" d="M4.5,0,9,9H0Z" fill="#db3157"/>
        <path id="Polygon_50" data-name="Polygon 50" d="M4.5,0,9,7H0Z" transform="translate(0 12)" fill="#db3157"/>
        <path id="Polygon_51" data-name="Polygon 51" d="M4.5,0,9,8H0Z" transform="translate(0 23)" fill="#db3157"/>
        <path id="Polygon_52" data-name="Polygon 52" d="M4.5,0,9,9H0Z" transform="translate(0 34)" fill="#db3157"/>
      </g>
    </g>
    <g id="Group_12" data-name="Group 12" transform="matrix(-0.5, 0.866, -0.866, -0.5, 413.733, -63.485)" opacity="0.15">
      <circle id="Ellipse_1-2" data-name="Ellipse 1" cx="3" cy="3" r="3" transform="translate(438 132)" fill="#ccf381"/>
      <circle id="Ellipse_2-2" data-name="Ellipse 2" cx="3" cy="3" r="3" transform="translate(480.222 132)" fill="#ccf381"/>
      <ellipse id="Ellipse_3-2" data-name="Ellipse 3" cx="2.5" cy="3" rx="2.5" ry="3" transform="translate(519.242 132)" fill="#ccf381"/>
      <circle id="Ellipse_4-2" data-name="Ellipse 4" cx="3" cy="3" r="3" transform="translate(564.666 132)" fill="#ccf381"/>
      <circle id="Ellipse_5-2" data-name="Ellipse 5" cx="3" cy="3" r="3" transform="translate(438 180.123)" fill="#ccf381"/>
      <circle id="Ellipse_6-2" data-name="Ellipse 6" cx="3" cy="3" r="3" transform="translate(480.222 180.123)" fill="#ccf381"/>
      <ellipse id="Ellipse_7-2" data-name="Ellipse 7" cx="2.5" cy="3" rx="2.5" ry="3" transform="translate(519.242 180.123)" fill="#ccf381"/>
      <circle id="Ellipse_8-2" data-name="Ellipse 8" cx="3" cy="3" r="3" transform="translate(564.666 180.123)" fill="#ccf381"/>
      <ellipse id="Ellipse_9-2" data-name="Ellipse 9" cx="3" cy="3.5" rx="3" ry="3.5" transform="translate(438 234.121)" fill="#ccf381"/>
      <ellipse id="Ellipse_10-2" data-name="Ellipse 10" cx="3" cy="3.5" rx="3" ry="3.5" transform="translate(480.222 234.121)" fill="#ccf381"/>
      <ellipse id="Ellipse_11-2" data-name="Ellipse 11" cx="2.5" cy="3.5" rx="2.5" ry="3.5" transform="translate(519.242 234.121)" fill="#ccf381"/>
      <ellipse id="Ellipse_12-2" data-name="Ellipse 12" cx="3" cy="3.5" rx="3" ry="3.5" transform="translate(564.666 234.121)" fill="#ccf381"/>
    </g>
    <g id="Group_13" data-name="Group 13" transform="matrix(-0.225, 0.974, -0.974, -0.225, 295.486, 151.27)" opacity="0.33">
      <circle id="Ellipse_1-3" data-name="Ellipse 1" cx="0.821" cy="0.821" r="0.821" transform="translate(438 132)" fill="#ccf381"/>
      <circle id="Ellipse_2-3" data-name="Ellipse 2" cx="0.821" cy="0.821" r="0.821" transform="translate(449.556 132)" fill="#ccf381"/>
      <ellipse id="Ellipse_3-3" data-name="Ellipse 3" cx="0.684" cy="0.821" rx="0.684" ry="0.821" transform="translate(460.235 132)" fill="#ccf381"/>
      <circle id="Ellipse_4-3" data-name="Ellipse 4" cx="0.821" cy="0.821" r="0.821" transform="translate(472.667 132)" fill="#ccf381"/>
      <circle id="Ellipse_5-3" data-name="Ellipse 5" cx="0.821" cy="0.821" r="0.821" transform="translate(438 145.171)" fill="#ccf381"/>
      <circle id="Ellipse_6-3" data-name="Ellipse 6" cx="0.821" cy="0.821" r="0.821" transform="translate(449.556 145.171)" fill="#ccf381"/>
      <ellipse id="Ellipse_7-3" data-name="Ellipse 7" cx="0.684" cy="0.821" rx="0.684" ry="0.821" transform="translate(460.235 145.171)" fill="#ccf381"/>
      <circle id="Ellipse_8-3" data-name="Ellipse 8" cx="0.821" cy="0.821" r="0.821" transform="translate(472.667 145.171)" fill="#ccf381"/>
      <ellipse id="Ellipse_9-3" data-name="Ellipse 9" cx="0.821" cy="0.958" rx="0.821" ry="0.958" transform="translate(438 159.95)" fill="#ccf381"/>
      <ellipse id="Ellipse_10-3" data-name="Ellipse 10" cx="0.821" cy="0.958" rx="0.821" ry="0.958" transform="translate(449.556 159.95)" fill="#ccf381"/>
      <ellipse id="Ellipse_11-3" data-name="Ellipse 11" cx="0.684" cy="0.958" rx="0.684" ry="0.958" transform="translate(460.235 159.95)" fill="#ccf381"/>
      <ellipse id="Ellipse_12-3" data-name="Ellipse 12" cx="0.821" cy="0.958" rx="0.821" ry="0.958" transform="translate(472.667 159.95)" fill="#ccf381"/>
    </g>
  </g>
</svg>
