<svg xmlns="http://www.w3.org/2000/svg" width="130" height="114" viewBox="0 0 130 114">
  <path id="logo4" d="M98,1292H0v-82a31.973,31.973,0,0,1,32-32h98v82a31.973,31.973,0,0,1-32,32ZM75.738,1261.92a28.69,28.69,0,0,0-1.589,9.01,33.169,33.169,0,0,0,.318,5.724,17.4,17.4,0,0,0,8.109,4.4,37.9,37.9,0,0,0,9.911,1.431c5.979,0,10.829-1.837,14.416-5.458a19.061,19.061,0,0,0,5.406-13.939c0-5.627-1.783-10.12-5.3-13.356l-20.882-19.292a13.489,13.489,0,0,1-3.181-4.293,12.775,12.775,0,0,1,2.6-14.045,12.455,12.455,0,0,1,9.063-3.6,13.137,13.137,0,0,1,8.851,2.968,10.006,10.006,0,0,1,3.445,7.95h.954v-13.037h-4.134a45.416,45.416,0,0,0-9.116-1.06c-5.7,0-10.28,1.8-13.621,5.353a18.209,18.209,0,0,0-5.035,12.879,16.916,16.916,0,0,0,5.724,12.826l20.352,18.868a12.508,12.508,0,0,1,3.1,4.386,15.155,15.155,0,0,1-.039,11.1,13.405,13.405,0,0,1-3.22,4.545,14.326,14.326,0,0,1-4.889,3.021A17.616,17.616,0,0,1,90.9,1279.3a15.207,15.207,0,0,1-5.83-1.073,12.738,12.738,0,0,1-4.559-3.22,14.508,14.508,0,0,1-2.941-4.836,17.264,17.264,0,0,1-.98-5.923c0-.773.035-1.558.105-2.332h-.954Zm-37.4-37H59.164l2.964,8.663c3.026,8.976,6.759,15.752,11.1,20.14a24.477,24.477,0,0,0,6.536,4.978,15.323,15.323,0,0,0,6.992,1.786,22.637,22.637,0,0,0,7.144-1.216l-.076-.76a17.823,17.823,0,0,1-3.458.3,15.246,15.246,0,0,1-4.9-1.064,16.322,16.322,0,0,1-5.7-3.686,43.08,43.08,0,0,1-6.042-7.828,73.35,73.35,0,0,1-6.5-14.022l-9.272-26.3a68.589,68.589,0,0,0-4.636-11.02,20.411,20.411,0,0,0-4.94-5.928,13.784,13.784,0,0,0-7.828-2.812,24.849,24.849,0,0,0-9.5,2.052l.229.76a17.163,17.163,0,0,1,5.852-1.139,11.064,11.064,0,0,1,5.586,1.463,14.64,14.64,0,0,1,4.6,4.389L28.46,1238.832a8.3,8.3,0,0,1-2.888,3.306,6.646,6.646,0,0,1-3.572,1.1h-.684v.76H36.592v-.76h-.608a2.946,2.946,0,0,1-2.47-1.026,3.237,3.237,0,0,1-.8-1.939,4.734,4.734,0,0,1,.38-1.823l5.244-13.527Zm20.064-2.281H39.176l10.032-25.688a68.291,68.291,0,0,1,3.191,7.98l6,17.706Z" transform="translate(0 -1178)" fill="#ccf381"/>
</svg>
