<svg xmlns="http://www.w3.org/2000/svg" width="82" height="87" viewBox="0 0 82 87">
  <path id="Subtraction_3" data-name="Subtraction 3" d="M41,1257a38.733,38.733,0,0,1-15.959-3.418,40.816,40.816,0,0,1-13.033-9.322,43.6,43.6,0,0,1-8.787-13.827,46.1,46.1,0,0,1,0-33.865,43.588,43.588,0,0,1,8.787-13.827,40.834,40.834,0,0,1,13.033-9.323,38.963,38.963,0,0,1,31.918,0,40.831,40.831,0,0,1,13.032,9.323,43.588,43.588,0,0,1,8.787,13.827,46,46,0,0,1-1.7,37.614,42.029,42.029,0,0,1-14.687,16.459A39.31,39.31,0,0,1,41,1257Zm7.548-29.679a20.524,20.524,0,0,0-1.14,6.459,23.8,23.8,0,0,0,.228,4.1,12.469,12.469,0,0,0,5.814,3.155,27.2,27.2,0,0,0,7.106,1.026,13.953,13.953,0,0,0,10.336-3.914,13.665,13.665,0,0,0,3.876-9.995c0-4.034-1.278-7.256-3.8-9.576L56,1204.749a8.85,8.85,0,0,1-3.041-6.689,8.736,8.736,0,0,1,2.624-6.459,8.931,8.931,0,0,1,6.5-2.584,9.417,9.417,0,0,1,6.346,2.128,7.171,7.171,0,0,1,2.47,5.7h.684V1187.5H68.612a32.531,32.531,0,0,0-6.536-.76,12.819,12.819,0,0,0-9.766,3.839,13.055,13.055,0,0,0-3.61,9.234,12.126,12.126,0,0,0,4.1,9.2L67.4,1222.533a9.265,9.265,0,0,1,2.964,7.105,9.577,9.577,0,0,1-3.078,7.258,11.085,11.085,0,0,1-7.866,2.887,9.645,9.645,0,0,1-7.447-3.078,11.05,11.05,0,0,1-2.812-7.714c0-.554.026-1.117.076-1.671ZM19.5,1234.5h0Zm11.819-23.548H44.472l1.873,5.472c1.911,5.669,4.268,9.948,7.007,12.72a15.494,15.494,0,0,0,4.129,3.145,9.688,9.688,0,0,0,4.416,1.128,14.31,14.31,0,0,0,4.512-.768l-.048-.481a11.288,11.288,0,0,1-2.184.193,9.617,9.617,0,0,1-3.1-.672,10.305,10.305,0,0,1-3.6-2.328,27.205,27.205,0,0,1-3.816-4.944,46.3,46.3,0,0,1-4.1-8.856L43.7,1198.953a43.242,43.242,0,0,0-2.928-6.961,12.875,12.875,0,0,0-3.12-3.744,8.708,8.708,0,0,0-4.944-1.776,15.689,15.689,0,0,0-6,1.3l.144.48a10.848,10.848,0,0,1,3.7-.72,7.685,7.685,0,0,1,6.432,3.7l-11.9,28.512a5.249,5.249,0,0,1-1.824,2.088,4.207,4.207,0,0,1-2.255.7h-.432V1223h9.648v-.481h-.384a1.859,1.859,0,0,1-1.56-.648,2.038,2.038,0,0,1-.5-1.224,2.991,2.991,0,0,1,.239-1.152l3.312-8.543Zm12.672-1.44H31.848l6.336-16.224a42.863,42.863,0,0,1,2.016,5.04l3.791,11.183Z" transform="translate(0 -1170)" fill="#fff"/>
</svg>
